<?xml version="1.0" encoding="UTF-8"?>
<!DOCTYPE svg PUBLIC "-//W3C//DTD SVG 1.1//EN" "http://www.w3.org/Graphics/SVG/1.1/DTD/svg11.dtd">
<svg xmlns="http://www.w3.org/2000/svg" version="1.1" width="1500px" height="1500px" style="shape-rendering:geometricPrecision; text-rendering:geometricPrecision; image-rendering:optimizeQuality; fill-rule:evenodd; clip-rule:evenodd" xmlns:xlink="http://www.w3.org/1999/xlink">
<g><path style="opacity:0.999" fill="#1dbf73" d="M 735.5,-0.5 C 745.5,-0.5 755.5,-0.5 765.5,-0.5C 983.793,7.59801 1166.29,91.9313 1313,252.5C 1422.03,377.622 1484.19,523.288 1499.5,689.5C 1499.5,730.167 1499.5,770.833 1499.5,811.5C 1479.95,1013.1 1395.28,1181.27 1245.5,1316C 1121.41,1422.85 977.412,1484.01 813.5,1499.5C 771.833,1499.5 730.167,1499.5 688.5,1499.5C 468.543,1477.13 290.377,1379.8 154,1207.5C 57.1088,1078.63 5.60882,933.292 -0.5,771.5C -0.5,757.833 -0.5,744.167 -0.5,730.5C 8.73651,520.565 89.0698,343.398 240.5,199C 380.651,72.3036 545.651,5.80356 735.5,-0.5 Z"/></g>
<g><path style="opacity:1" fill="#fefefe" d="M 333.5,561.5 C 333.5,584.833 333.5,608.167 333.5,631.5C 314.326,631.17 295.326,631.503 276.5,632.5C 264.266,634.9 256.766,642.233 254,654.5C 253.179,661.679 253.345,668.679 254.5,675.5C 308.664,676.499 362.997,676.832 417.5,676.5C 417.5,761.833 417.5,847.167 417.5,932.5C 389.833,932.5 362.167,932.5 334.5,932.5C 334.5,869.833 334.5,807.167 334.5,744.5C 307.5,744.5 280.5,744.5 253.5,744.5C 253.5,807.167 253.5,869.833 253.5,932.5C 225.5,932.5 197.5,932.5 169.5,932.5C 169.5,869.833 169.5,807.167 169.5,744.5C 153.167,744.5 136.833,744.5 120.5,744.5C 120.5,721.833 120.5,699.167 120.5,676.5C 136.833,676.5 153.167,676.5 169.5,676.5C 165.934,649.588 171.1,624.588 185,601.5C 200.993,578.749 222.826,565.583 250.5,562C 278.165,561.5 305.831,561.333 333.5,561.5 Z"/></g>
<g><path style="opacity:1" fill="#a3e4c5" d="M 333.5,561.5 C 334.498,584.994 334.831,608.661 334.5,632.5C 315.167,632.5 295.833,632.5 276.5,632.5C 295.326,631.503 314.326,631.17 333.5,631.5C 333.5,608.167 333.5,584.833 333.5,561.5 Z"/></g>
<g><path style="opacity:1" fill="#fefefe" d="M 922.5,784.5 C 922.5,797.5 922.5,810.5 922.5,823.5C 863.331,823.168 804.331,823.501 745.5,824.5C 747.553,848.065 760.22,862.565 783.5,868C 800.097,872.012 815.43,869.345 829.5,860C 834.12,855.062 838.287,849.896 842,844.5C 866.097,851.811 890.263,858.811 914.5,865.5C 904.871,890.64 888.204,909.806 864.5,923C 843.463,933.73 821.129,938.23 797.5,936.5C 739.651,937.51 698.151,912.177 673,860.5C 663.887,835.944 660.887,810.61 664,784.5C 671.523,731.647 700.357,696.147 750.5,678C 797.66,664.835 840.66,672.835 879.5,702C 904.259,724.017 918.593,751.517 922.5,784.5 Z"/></g>
<g><path style="opacity:1" fill="#fefefe" d="M 1108.5,675.5 C 1134.33,676.498 1160.33,676.831 1186.5,676.5C 1186.33,689.171 1186.5,701.838 1187,714.5C 1187.72,713.956 1188.22,713.289 1188.5,712.5C 1196.38,692.121 1211.04,679.954 1232.5,676C 1240.83,675.5 1249.16,675.334 1257.5,675.5C 1262.98,676.489 1268.64,676.822 1274.5,676.5C 1274.5,699.5 1274.5,722.5 1274.5,745.5C 1259.99,745.171 1245.66,745.504 1231.5,746.5C 1208.75,748.467 1194.25,760.467 1188,782.5C 1187.5,832.499 1187.33,882.499 1187.5,932.5C 1159.17,932.5 1130.83,932.5 1102.5,932.5C 1102.5,870.5 1102.5,808.5 1102.5,746.5C 1088.5,746.333 1074.5,746.5 1060.5,747C 1040.37,752.801 1028.2,765.968 1024,786.5C 1023.5,835.166 1023.33,883.832 1023.5,932.5C 995.5,932.5 967.5,932.5 939.5,932.5C 939.5,847.167 939.5,761.833 939.5,676.5C 967.5,676.5 995.5,676.5 1023.5,676.5C 1023.33,688.838 1023.5,701.171 1024,713.5C 1024.72,712.956 1025.22,712.289 1025.5,711.5C 1033.86,691.314 1048.86,679.481 1070.5,676C 1083.16,675.5 1095.83,675.333 1108.5,675.5 Z"/></g>
<g><path style="opacity:1" fill="#b1e8ce" d="M 254.5,675.5 C 309.167,675.5 363.833,675.5 418.5,675.5C 418.5,761.5 418.5,847.5 418.5,933.5C 390.328,933.831 362.328,933.498 334.5,932.5C 362.167,932.5 389.833,932.5 417.5,932.5C 417.5,847.167 417.5,761.833 417.5,676.5C 362.997,676.832 308.664,676.499 254.5,675.5 Z"/></g>
<g><path style="opacity:1" fill="#fefefe" d="M 423.5,676.5 C 451.741,676.172 479.907,676.505 508,677.5C 522.148,725.774 536.981,773.774 552.5,821.5C 567.97,773.422 582.637,725.089 596.5,676.5C 624.835,676.333 653.169,676.5 681.5,677C 651.197,761.775 621.031,846.608 591,931.5C 565.566,932.827 540.066,932.827 514.5,931.5C 483.959,846.541 453.626,761.541 423.5,676.5 Z"/></g>
<g><path style="opacity:1" fill="#8edfb8" d="M 1023.5,676.5 C 1024.17,688.167 1024.83,699.833 1025.5,711.5C 1025.22,712.289 1024.72,712.956 1024,713.5C 1023.5,701.171 1023.33,688.838 1023.5,676.5 Z"/></g>
<g><path style="opacity:1" fill="#b0e8cd" d="M 1108.5,675.5 C 1134.83,675.5 1161.17,675.5 1187.5,675.5C 1187.17,688.011 1187.5,700.345 1188.5,712.5C 1188.22,713.289 1187.72,713.956 1187,714.5C 1186.5,701.838 1186.33,689.171 1186.5,676.5C 1160.33,676.831 1134.33,676.498 1108.5,675.5 Z"/></g>
<g><path style="opacity:1" fill="#c4eeda" d="M 1257.5,675.5 C 1263.5,675.5 1269.5,675.5 1275.5,675.5C 1275.5,699.167 1275.5,722.833 1275.5,746.5C 1260.83,746.5 1246.17,746.5 1231.5,746.5C 1245.66,745.504 1259.99,745.171 1274.5,745.5C 1274.5,722.5 1274.5,699.5 1274.5,676.5C 1268.64,676.822 1262.98,676.489 1257.5,675.5 Z"/></g>
<g><path style="opacity:1" fill="#22bf74" d="M 778.5,733.5 C 797.321,729.77 813.821,734.103 828,746.5C 834.863,754.563 838.696,763.896 839.5,774.5C 808.167,774.5 776.833,774.5 745.5,774.5C 747.276,753.392 758.276,739.725 778.5,733.5 Z"/></g>
<g><path style="opacity:1" fill="#95e1bd" d="M 922.5,784.5 C 923.496,797.656 923.829,810.99 923.5,824.5C 864.167,824.5 804.833,824.5 745.5,824.5C 804.331,823.501 863.331,823.168 922.5,823.5C 922.5,810.5 922.5,797.5 922.5,784.5 Z"/></g>
<g><path style="opacity:1" fill="#fefefe" d="M 1318.5,835.5 C 1350.33,833.191 1370.83,847.191 1380,877.5C 1381.98,917.853 1362.81,938.686 1322.5,940C 1298.86,936.029 1283.7,922.529 1277,899.5C 1273.42,866.628 1287.25,845.294 1318.5,835.5 Z"/></g>
</svg>
