<?xml version="1.0" encoding="UTF-8"?>
<!DOCTYPE svg PUBLIC "-//W3C//DTD SVG 1.1//EN" "http://www.w3.org/Graphics/SVG/1.1/DTD/svg11.dtd">
<svg xmlns="http://www.w3.org/2000/svg" version="1.1" width="1200px" height="1225px" style="shape-rendering:geometricPrecision; text-rendering:geometricPrecision; image-rendering:optimizeQuality; fill-rule:evenodd; clip-rule:evenodd" xmlns:xlink="http://www.w3.org/1999/xlink">
<g><path style="opacity:0.955" fill="#144a79" d="M 564.5,-0.5 C 570.167,-0.5 575.833,-0.5 581.5,-0.5C 585.858,6.45899 587.192,13.959 585.5,22C 584.167,22.6667 582.833,22.6667 581.5,22C 577.806,16.9728 573.473,12.6395 568.5,9C 558.242,8.25035 548.242,9.58368 538.5,13C 538.179,23.8151 539.012,34.6485 541,45.5C 541.548,49.6932 542.714,53.6932 544.5,57.5C 546.349,59.1742 548.516,60.1742 551,60.5C 559.83,59.7515 567.164,56.0849 573,49.5C 573.771,46.8103 574.604,44.1436 575.5,41.5C 577.909,40.2781 579.742,40.9447 581,43.5C 583.638,54.4068 584.138,65.4068 582.5,76.5C 581.448,76.6495 580.448,76.4828 579.5,76C 575.866,70.7124 570.866,67.3791 564.5,66C 557.808,65.1691 551.142,65.3358 544.5,66.5C 545.973,81.925 548.14,97.2584 551,112.5C 562.078,113.339 572.912,111.839 583.5,108C 584.333,107.167 585.167,106.333 586,105.5C 588,100.833 590,96.1667 592,91.5C 594.72,88.6812 597.053,89.0145 599,92.5C 604.462,110.046 597.962,118.879 579.5,119C 559.33,121.715 539.33,124.548 519.5,127.5C 522.142,123.691 524.975,120.024 528,116.5C 531.372,103.358 530.705,90.3579 526,77.5C 523.934,75.0295 521.267,73.6962 518,73.5C 504.28,75.8817 495.614,83.8817 492,97.5C 488.984,104.908 487.651,112.575 488,120.5C 490.674,122.871 493.841,124.037 497.5,124C 499.421,125.241 499.754,126.741 498.5,128.5C 495.308,129.866 491.974,130.699 488.5,131C 480.173,131.5 471.84,131.666 463.5,131.5C 469.146,121.541 474.313,111.207 479,100.5C 490.991,70.0271 502.491,39.3605 513.5,8.5C 530.58,5.20719 547.58,2.20719 564.5,-0.5 Z M 518.5,24.5 C 519.496,24.4142 520.329,24.7476 521,25.5C 522.044,27.7148 522.71,30.0481 523,32.5C 523.667,40.8333 523.667,49.1667 523,57.5C 522.019,64.0804 518.186,67.5804 511.5,68C 509.5,68.6667 507.5,68.6667 505.5,68C 504.919,67.1074 504.585,66.1074 504.5,65C 507.297,50.773 511.964,37.273 518.5,24.5 Z"/></g>
<g><path style="opacity:0.959" fill="#144a79" d="M 706.5,10.5 C 733.947,13.7047 759.614,22.2047 783.5,36C 797.516,50.053 802.683,66.8864 799,86.5C 796.271,106.855 786.105,122.021 768.5,132C 755.375,139.629 741.375,141.629 726.5,138C 708.892,134.142 691.725,128.975 675,122.5C 674.316,121.216 674.483,120.049 675.5,119C 685.694,116.806 691.86,110.64 694,100.5C 701.015,75.6248 707.515,50.6248 713.5,25.5C 712.863,20.6902 710.696,16.6902 707,13.5C 706.517,12.552 706.351,11.552 706.5,10.5 Z M 733.5,26.5 C 774.112,30.4302 789.612,52.0968 780,91.5C 775.107,105.143 766.94,116.309 755.5,125C 749.926,128.29 743.926,130.123 737.5,130.5C 727.751,129.563 718.418,127.063 709.5,123C 707.876,121.883 706.876,120.383 706.5,118.5C 715.507,87.7985 724.507,57.1319 733.5,26.5 Z"/></g>
<g><path style="opacity:0.961" fill="#144a79" d="M 399.5,31.5 C 401.5,31.5 403.5,31.5 405.5,31.5C 404.572,35.3621 403.072,39.0288 401,42.5C 400.342,46.5715 400.675,50.5715 402,54.5C 410.848,75.1971 420.515,95.5305 431,115.5C 433.888,120.776 437.388,125.609 441.5,130C 446.597,132.572 451.931,133.072 457.5,131.5C 457.649,132.552 457.483,133.552 457,134.5C 447.567,141.471 437.401,147.304 426.5,152C 422.687,153.772 418.687,154.605 414.5,154.5C 414.83,150.979 416.33,147.979 419,145.5C 419.61,141.764 419.277,138.097 418,134.5C 408.49,111.145 398.156,88.1448 387,65.5C 388.278,100.445 390.111,135.278 392.5,170C 391.092,170.315 389.759,169.982 388.5,169C 363.048,147.341 338.381,125.507 314.5,103.5C 322.588,126.676 333.088,148.676 346,169.5C 351.262,176.088 358.095,179.755 366.5,180.5C 365.687,181.814 364.687,182.981 363.5,184C 354.854,188.824 345.854,192.824 336.5,196C 334.421,196.808 332.421,196.641 330.5,195.5C 331.366,192.469 332.866,189.803 335,187.5C 335.667,185.167 335.667,182.833 335,180.5C 325.215,151.598 312.215,124.265 296,98.5C 292.518,95.1175 288.351,93.7841 283.5,94.5C 283.297,92.6096 283.963,91.1096 285.5,90C 293.833,85.5 302.167,81 310.5,76.5C 334.447,96.9438 357.947,117.944 381,139.5C 380.133,109.261 377.966,79.0947 374.5,49C 374.585,47.8926 374.919,46.8926 375.5,46C 383.397,40.8896 391.397,36.0562 399.5,31.5 Z"/></g>
<g><path style="opacity:0.965" fill="#144a79" d="M 852.5,60.5 C 867.05,64.2744 880.05,70.941 891.5,80.5C 883.885,80.644 877.718,83.644 873,89.5C 858.184,113.462 845.184,138.462 834,164.5C 833.333,167.5 833.333,170.5 834,173.5C 840.821,182.354 838.987,184.521 828.5,180C 818.849,175.509 809.515,170.509 800.5,165C 799.663,163.989 799.33,162.822 799.5,161.5C 804.483,161.588 809.149,160.421 813.5,158C 818.286,152.265 822.452,146.099 826,139.5C 835.762,121.549 844.762,103.216 853,84.5C 854.576,80.439 855.743,76.2723 856.5,72C 855.329,68.0376 853.995,64.2043 852.5,60.5 Z"/></g>
<g><path style="opacity:0.957" fill="#144a79" d="M 986.5,188.5 C 985.833,188.5 985.5,188.167 985.5,187.5C 986.405,179.164 987.405,170.831 988.5,162.5C 987.422,155.575 983.755,150.408 977.5,147C 949.821,130.648 925.654,134.815 905,159.5C 895.816,172.385 891.482,186.718 892,202.5C 899.195,216.695 909.529,228.029 923,236.5C 931.654,230.102 936.488,221.435 937.5,210.5C 936.754,206.868 936.421,203.202 936.5,199.5C 939.425,199.46 942.091,200.293 944.5,202C 953.278,208.81 961.778,215.977 970,223.5C 971.009,225.025 971.509,226.692 971.5,228.5C 967.333,227.9 963.167,227.234 959,226.5C 956.747,226.631 954.581,227.131 952.5,228C 946.167,235 939.833,242 933.5,249C 932.667,249.167 931.833,249.333 931,249.5C 916.806,242.986 903.639,234.82 891.5,225C 876.043,208.718 872.21,189.885 880,168.5C 889.946,145.889 906.78,131.056 930.5,124C 947.292,122.365 962.625,126.365 976.5,136C 985.607,142.107 993.773,149.274 1001,157.5C 1002.91,161.471 1002.91,165.471 1001,169.5C 996.643,176.223 991.81,182.556 986.5,188.5 Z"/></g>
<g><path style="opacity:0.952" fill="#144a79" d="M 235.5,128.5 C 238.32,128.248 240.986,128.748 243.5,130C 248.5,135 253.5,140 258.5,145C 248.933,143.353 239.267,142.686 229.5,143C 226.228,144.608 223.228,146.608 220.5,149C 215.533,154.969 210.199,160.635 204.5,166C 215.333,176.833 226.167,187.667 237,198.5C 243.688,192.81 250.022,186.81 256,180.5C 258.7,174.872 258.534,169.205 255.5,163.5C 256.167,163.167 256.833,162.833 257.5,162.5C 267.352,168.852 275.352,177.019 281.5,187C 280.833,187.667 280.167,188.333 279.5,189C 265.614,187.186 254.114,191.686 245,202.5C 244.242,206.329 245.242,209.662 248,212.5C 255.084,222.255 262.917,231.422 271.5,240C 281.35,234.857 290.184,228.024 298,219.5C 298.667,218.167 299.333,216.833 300,215.5C 300.186,208.586 300.686,201.753 301.5,195C 304.642,195.088 307.142,196.588 309,199.5C 310.92,202.838 312.42,206.338 313.5,210C 313.109,213.177 311.943,216.01 310,218.5C 294.433,234.07 278.267,248.904 261.5,263C 259.182,264.993 256.516,266.159 253.5,266.5C 255.604,259.768 254.771,253.434 251,247.5C 235.522,225.093 218.022,204.26 198.5,185C 192.829,180.45 186.495,179.284 179.5,181.5C 179.491,179.692 179.991,178.025 181,176.5C 197.877,158.774 216.044,142.774 235.5,128.5 Z"/></g>
<g><path style="opacity:0.969" fill="#144a79" d="M 597.5,187.5 C 635.866,187.023 674.2,187.856 712.5,190C 728.284,190.622 743.284,194.288 757.5,201C 766.114,208.17 769.614,217.337 768,228.5C 767.649,232.556 766.315,236.223 764,239.5C 763.333,240.833 763.333,242.167 764,243.5C 768.074,247.119 772.241,250.619 776.5,254C 793.385,263.542 808.552,275.375 822,289.5C 831.742,300.32 837.742,312.987 840,327.5C 840.465,328.931 841.299,330.097 842.5,331C 861.693,327.599 880.027,330.266 897.5,339C 925.155,354.988 946.321,377.154 961,405.5C 984.814,455.088 997.814,507.422 1000,562.5C 1003.65,623.343 996.98,683.01 980,741.5C 972.189,766.603 961.856,790.603 949,813.5C 930.02,847.132 908.687,879.132 885,909.5C 871.664,924.512 855.831,936.012 837.5,944C 818.189,948.879 801.689,944.046 788,929.5C 786.774,926.048 785.274,922.715 783.5,919.5C 781.102,918.276 778.769,918.442 776.5,920C 765.702,928.464 755.869,937.964 747,948.5C 743.239,956.242 742.573,964.242 745,972.5C 774.013,973.838 786.679,988.838 783,1017.5C 777.436,1029.88 767.936,1037.38 754.5,1040C 717.798,1047.44 681.131,1047.11 644.5,1039C 630.042,1034.96 615.542,1031.12 601,1027.5C 588.289,1029.8 575.789,1032.97 563.5,1037C 522.749,1046.04 481.749,1047.7 440.5,1042C 424.1,1035.44 414.1,1023.61 410.5,1006.5C 413.615,990.548 422.948,980.048 438.5,975C 446.742,976.08 451.575,972.58 453,964.5C 453.667,960.5 453.667,956.5 453,952.5C 451.392,949.228 449.392,946.228 447,943.5C 436.604,933.935 425.771,924.935 414.5,916.5C 409.376,922.125 404.042,927.625 398.5,933C 387.555,940.597 375.555,942.597 362.5,939C 352.997,936.248 344.33,931.915 336.5,926C 315.076,907.252 296.576,886.086 281,862.5C 200.067,742.008 178.067,611.342 215,470.5C 224.696,433.444 241.03,399.778 264,369.5C 273.752,357.735 285.252,348.235 298.5,341C 305.232,337.867 312.232,335.534 319.5,334C 329.581,333.294 339.581,332.294 349.5,331C 351.035,315.061 356.868,300.894 367,288.5C 379.823,273.844 394.657,261.678 411.5,252C 414.63,249.872 417.463,247.372 420,244.5C 421.022,242.298 421.522,239.965 421.5,237.5C 420.572,231.181 420.405,224.847 421,218.5C 422.384,214.242 424.884,210.742 428.5,208C 442.353,198.828 457.686,193.828 474.5,193C 515.603,189.965 556.603,188.132 597.5,187.5 Z M 630.5,202.5 C 652.503,202.333 674.503,202.5 696.5,203C 712.529,203.616 728.196,206.283 743.5,211C 754.745,215.717 756.412,222.717 748.5,232C 746.232,233.552 743.732,234.385 741,234.5C 692.115,230.235 643.281,231.068 594.5,237C 581.473,239.439 568.473,241.939 555.5,244.5C 553.354,238.198 551.188,231.865 549,225.5C 547.996,222.007 548.496,218.841 550.5,216C 556.576,213.23 562.909,211.23 569.5,210C 589.88,206.645 610.213,204.145 630.5,202.5 Z M 518.5,203.5 C 520.857,203.337 523.19,203.503 525.5,204C 497.423,214.137 469.423,224.47 441.5,235C 440.216,235.684 439.049,235.517 438,234.5C 434.746,224.076 438.246,216.909 448.5,213C 455.316,210.57 462.316,208.903 469.5,208C 485.965,206.261 502.298,204.761 518.5,203.5 Z M 510.5,224.5 C 520.822,222.857 529.322,225.857 536,233.5C 537.006,235.534 537.506,237.7 537.5,240C 536.043,246.707 534.377,253.373 532.5,260C 533,261.5 533.5,263 534,264.5C 539.056,266.377 544.056,268.377 549,270.5C 550.994,279.368 551.994,288.368 552,297.5C 552.583,299.002 553.416,300.335 554.5,301.5C 559.124,302.857 563.624,304.523 568,306.5C 570.197,313.432 567.697,317.766 560.5,319.5C 554.73,317.559 551.23,313.559 550,307.5C 545.437,303.656 540.77,299.989 536,296.5C 531.964,289.75 528.297,282.75 525,275.5C 521.194,270.689 516.527,267.022 511,264.5C 508.878,257.568 506.878,250.568 505,243.5C 502.5,239.167 500,234.833 497.5,230.5C 498.09,229.201 499.09,228.368 500.5,228C 503.85,226.514 507.184,225.347 510.5,224.5 Z M 476.5,237.5 C 486.414,241.253 492.081,248.42 493.5,259C 491.95,266.456 491.117,273.956 491,281.5C 492.574,282.848 494.407,283.514 496.5,283.5C 501.143,282.517 505.809,282.35 510.5,283C 511,283.5 511.5,284 512,284.5C 513.088,292.138 514.088,299.805 515,307.5C 516.731,309.617 518.898,311.117 521.5,312C 525.58,312.687 529.58,313.687 533.5,315C 539.828,319.82 540.161,325.153 534.5,331C 533.584,331.374 532.75,331.874 532,332.5C 529.821,330.652 527.987,328.485 526.5,326C 517.167,322 507.833,318 498.5,314C 495.098,298.597 485.432,288.93 469.5,285C 468.333,283.833 467.167,282.667 466,281.5C 463.054,273.998 459.721,266.665 456,259.5C 453.306,256.561 450.473,253.728 447.5,251C 449.657,249.088 451.991,247.421 454.5,246C 461.904,243.037 469.238,240.204 476.5,237.5 Z M 645.5,246.5 C 663.17,246.333 680.836,246.5 698.5,247C 707.281,247.09 715.948,248.09 724.5,250C 729.633,257.407 727.633,261.741 718.5,263C 686.143,265.335 653.81,268.001 621.5,271C 605.259,272.948 589.259,276.115 573.5,280.5C 572.558,280.392 571.725,280.059 571,279.5C 568.61,274.997 566.61,270.331 565,265.5C 564.313,263.432 564.48,261.432 565.5,259.5C 568.505,257.329 571.839,255.829 575.5,255C 598.812,250.772 622.145,247.939 645.5,246.5 Z M 429.5,262.5 C 438.678,262.338 444.512,266.672 447,275.5C 447.333,283.5 447.667,291.5 448,299.5C 448.5,300 449,300.5 449.5,301C 456.167,301.333 462.833,301.667 469.5,302C 478.044,302.209 482.044,306.542 481.5,315C 481.135,321.555 480.468,328.055 479.5,334.5C 487.813,335.332 496.147,335.832 504.5,336C 516.425,335.294 520.591,340.794 517,352.5C 516.261,356.062 514.761,359.228 512.5,362C 502.876,367.312 492.876,371.812 482.5,375.5C 480.459,374.764 478.459,373.931 476.5,373C 465.175,356.83 449.508,348.164 429.5,347C 412.155,346.078 394.822,345.078 377.5,344C 371.459,341.111 367.959,336.277 367,329.5C 365.499,320.838 367.166,312.838 372,305.5C 384.957,288.112 401.124,274.612 420.5,265C 423.628,264.159 426.628,263.325 429.5,262.5 Z M 754.5,265.5 C 764.589,266.363 773.922,269.53 782.5,275C 799.096,285.595 812.262,299.428 822,316.5C 827.001,332.327 821.501,342.827 805.5,348C 790.177,349.069 774.843,350.069 759.5,351C 747.027,352.27 735.36,355.936 724.5,362C 720.591,365.852 716.924,369.852 713.5,374C 711.5,374.667 709.5,374.667 707.5,374C 704.833,372.333 702.167,370.667 699.5,369C 691.798,367.106 684.131,365.106 676.5,363C 673.332,359.825 671.998,355.992 672.5,351.5C 672.368,341.131 677.535,335.797 688,335.5C 694.782,336.946 701.615,337.446 708.5,337C 709.059,336.275 709.392,335.442 709.5,334.5C 705.921,325.334 706.921,316.834 712.5,309C 714.67,307.414 717.004,306.08 719.5,305C 726.103,303.837 732.77,303.17 739.5,303C 740.416,302.626 741.25,302.126 742,301.5C 742.351,295.616 741.851,289.783 740.5,284C 740.764,274.235 745.431,268.068 754.5,265.5 Z M 668.5,279.5 C 674.509,279.334 680.509,279.501 686.5,280C 692.807,280.133 696.807,283.133 698.5,289C 697.415,291.75 695.415,293.417 692.5,294C 676.785,294.82 661.119,296.154 645.5,298C 627.793,301.344 610.127,304.844 592.5,308.5C 589.869,308.679 587.535,308.013 585.5,306.5C 583.025,303.216 581.359,299.549 580.5,295.5C 580.818,294.353 581.484,293.519 582.5,293C 611.106,287.225 639.773,282.725 668.5,279.5 Z M 717.5,279.5 C 725.367,279.439 726.7,281.939 721.5,287C 717.876,289.539 715.209,288.872 713.5,285C 714.007,282.455 715.341,280.621 717.5,279.5 Z M 681.5,308.5 C 687.744,307.928 690.91,310.595 691,316.5C 690.167,317.333 689.333,318.167 688.5,319C 682.897,319.822 677.564,321.489 672.5,324C 667.789,328.38 662.789,332.38 657.5,336C 655.299,336.825 653.466,336.325 652,334.5C 651.333,330.833 651.333,327.167 652,323.5C 652.25,318.749 654.75,316.083 659.5,315.5C 664.537,316.876 669.537,316.71 674.5,315C 675.776,311.552 678.11,309.386 681.5,308.5 Z M 629.5,314.5 C 637.455,317.884 637.288,321.217 629,324.5C 621.768,320.983 621.934,317.65 629.5,314.5 Z M 588.5,327.5 C 596.07,327.817 603.403,329.317 610.5,332C 623.724,337.279 636.391,343.612 648.5,351C 632.549,348.757 617.549,351.59 603.5,359.5C 599.282,355.454 594.615,351.954 589.5,349C 577.14,345.844 565.474,347.511 554.5,354C 549.004,357.916 543.337,361.582 537.5,365C 536.216,365.684 535.049,365.517 534,364.5C 532.123,357.42 534.289,351.92 540.5,348C 555.568,338.623 571.568,331.79 588.5,327.5 Z M 856.5,345.5 C 867.202,344.569 877.535,346.069 887.5,350C 911.23,362.397 929.73,380.23 943,403.5C 950.121,418.154 946.955,430.321 933.5,440C 931.577,440.808 929.577,441.308 927.5,441.5C 919.226,439.861 910.893,439.361 902.5,440C 901.667,440.833 900.833,441.667 900,442.5C 897.861,447.916 895.528,453.249 893,458.5C 891.421,460.041 889.587,461.208 887.5,462C 881.5,462.667 875.5,462.667 869.5,462C 867.5,461 865.5,460 863.5,459C 858.16,447.876 852.327,447.709 846,458.5C 843.754,466.832 839.587,473.998 833.5,480C 828.67,482.86 823.67,483.194 818.5,481C 812.236,477.73 806.236,474.064 800.5,470C 795.416,469.561 793.083,472.061 793.5,477.5C 794.632,484.809 798.632,489.975 805.5,493C 819.373,499.913 832.373,498.579 844.5,489C 848.2,484.965 852.2,481.298 856.5,478C 858.581,477.131 860.747,476.631 863,476.5C 884.31,481.956 900.81,475.456 912.5,457C 913.5,456.5 914.5,456 915.5,455.5C 927.33,457.901 937.997,455.401 947.5,448C 951.71,443.958 955.71,439.792 959.5,435.5C 965.29,449.494 969.29,463.994 971.5,479C 970.252,488.253 965.252,494.586 956.5,498C 947.155,498.664 937.822,499.33 928.5,500C 922.167,505.667 915.833,511.333 909.5,517C 902.28,521.99 894.947,522.323 887.5,518C 882.866,514.368 878.533,510.368 874.5,506C 864.905,499.548 859.738,502.048 859,513.5C 851.802,527.24 840.636,532.073 825.5,528C 819.973,525.478 815.306,521.811 811.5,517C 806.398,514.657 801.064,513.99 795.5,515C 790.499,515.9 785.499,516.734 780.5,517.5C 781.088,497.43 782.588,477.43 785,457.5C 786.127,450.247 789.127,443.913 794,438.5C 801.884,425.964 806.218,412.297 807,397.5C 813.207,375.971 826.041,359.805 845.5,349C 849.254,347.691 852.921,346.525 856.5,345.5 Z M 327.5,348.5 C 333.509,348.334 339.509,348.501 345.5,349C 350.146,349.326 354.479,350.66 358.5,353C 371.954,362.791 382.121,375.291 389,390.5C 394.75,414.815 403.917,437.648 416.5,459C 415.528,461.111 414.695,463.278 414,465.5C 413.286,482.871 413.786,500.204 415.5,517.5C 409.297,515.53 402.964,514.697 396.5,515C 393.554,515.806 390.888,517.139 388.5,519C 377.937,531.758 365.27,534.758 350.5,528C 349,526.5 347.5,525 346,523.5C 343.207,516.154 340.041,508.987 336.5,502C 332.793,501.004 329.459,501.67 326.5,504C 324.212,506.743 322.045,509.577 320,512.5C 309.736,522.762 298.236,524.262 285.5,517C 281.155,511.295 276.822,505.628 272.5,500C 270.091,499.065 267.591,498.565 265,498.5C 257.85,499.592 250.683,500.092 243.5,500C 240.063,498.895 237.563,496.728 236,493.5C 232.373,487.584 229.873,481.251 228.5,474.5C 231.552,462.404 235.719,450.737 241,439.5C 252.509,452.672 267.009,460.172 284.5,462C 293.101,466.939 301.435,472.272 309.5,478C 313.078,479.037 316.744,479.537 320.5,479.5C 327.164,478.777 333.83,478.611 340.5,479C 342.246,479.471 343.913,480.138 345.5,481C 360.94,498.698 378.94,502.031 399.5,491C 403.593,486.982 406.26,482.149 407.5,476.5C 406.734,471.85 404.068,470.35 399.5,472C 394.277,474.557 389.61,477.891 385.5,482C 375.047,485.182 366.547,482.349 360,473.5C 355.833,465.833 351.667,458.167 347.5,450.5C 340.266,456.616 332.266,461.45 323.5,465C 315.757,466.418 309.59,463.918 305,457.5C 303.055,452.635 300.555,448.135 297.5,444C 295.634,443.015 293.634,442.515 291.5,442.5C 284.048,444.919 276.715,444.753 269.5,442C 260.503,436.514 254.837,428.68 252.5,418.5C 261.916,392.574 278.25,372.074 301.5,357C 309.864,352.822 318.531,349.989 327.5,348.5 Z M 407.5,359.5 C 424.961,359.448 441.295,363.615 456.5,372C 462.167,377.319 464.001,383.819 462,391.5C 461,394.5 460,397.5 459,400.5C 452.493,410.843 446.493,421.51 441,432.5C 440.057,454.592 433.723,456.259 422,437.5C 415.285,425.07 409.952,412.07 406,398.5C 402.832,387.664 399.666,376.831 396.5,366C 396.439,364.289 397.106,362.956 398.5,362C 401.628,361.159 404.628,360.325 407.5,359.5 Z M 572.5,363.5 C 577.335,363.977 582.002,365.144 586.5,367C 588.584,368.501 589.917,370.501 590.5,373C 589.413,376.674 587.913,380.174 586,383.5C 577.944,392.219 569.944,400.885 562,409.5C 559.449,413.935 557.449,418.601 556,423.5C 554.811,436.08 550.311,447.246 542.5,457C 514.931,470.067 500.931,461.567 500.5,431.5C 504.693,434.86 509.026,438.027 513.5,441C 518.339,443.166 523.006,442.833 527.5,440C 530.787,436.707 533.287,432.873 535,428.5C 537.842,418.289 540.176,407.956 542,397.5C 544.78,385.417 550.947,375.584 560.5,368C 564.432,365.972 568.432,364.472 572.5,363.5 Z M 776.5,363.5 C 785.173,363.334 793.84,363.5 802.5,364C 802.957,364.414 803.291,364.914 803.5,365.5C 802.333,367.833 801.167,370.167 800,372.5C 795.292,389.713 789.959,406.713 784,423.5C 779.071,434.418 772.571,444.252 764.5,453C 762.299,453.825 760.466,453.325 759,451.5C 754.691,437.885 749.025,424.885 742,412.5C 738.333,407.5 734,403.167 729,399.5C 724.41,381.228 731.576,370.394 750.5,367C 759.292,365.652 767.959,364.486 776.5,363.5 Z M 628.5,365.5 C 641.899,365.719 652.399,371.386 660,382.5C 663.115,387.844 665.448,393.511 667,399.5C 669.031,411.321 671.697,422.988 675,434.5C 676.99,438.49 680.157,440.99 684.5,442C 693.29,444.068 700.79,441.901 707,435.5C 709.973,451.557 703.473,461.724 687.5,466C 676.984,467.159 668.818,463.325 663,454.5C 657.379,443.404 653.379,431.738 651,419.5C 648.016,412.195 643.85,405.695 638.5,400C 634.928,397.363 630.928,395.697 626.5,395C 620.704,388.945 618.537,381.778 620,373.5C 622.098,369.897 624.932,367.23 628.5,365.5 Z M 509.5,380.5 C 515.842,380.334 522.175,380.5 528.5,381C 529.167,381.667 529.833,382.333 530.5,383C 528.61,387.336 527.11,391.836 526,396.5C 524.738,405.527 523.405,414.527 522,423.5C 520.667,426.167 519.333,426.167 518,423.5C 517.154,419.059 515.987,414.726 514.5,410.5C 511.358,408.079 508.025,407.912 504.5,410C 490.903,420.361 484.07,434.195 484,451.5C 478.608,464.617 472.942,477.617 467,490.5C 461.758,498.367 456.425,498.367 451,490.5C 446.176,483.197 444.509,475.197 446,466.5C 446.956,465.106 448.289,464.439 450,464.5C 458.136,467.108 465.136,465.441 471,459.5C 473.773,455.185 475.773,450.518 477,445.5C 478.15,436.209 478.816,426.876 479,417.5C 479.2,410.569 481.2,404.235 485,398.5C 491.435,389.864 499.602,383.864 509.5,380.5 Z M 683.5,380.5 C 687.911,380.203 691.911,381.369 695.5,384C 706.771,392.448 713.771,403.615 716.5,417.5C 716.167,418.167 715.833,418.833 715.5,419.5C 710.379,414.767 704.379,412.601 697.5,413C 695.714,413.785 694.214,414.951 693,416.5C 691.294,420.035 689.96,423.702 689,427.5C 684.605,413.464 682.272,399.131 682,384.5C 682.41,383.099 682.91,381.766 683.5,380.5 Z M 599.5,396.5 C 600.458,396.953 601.292,397.619 602,398.5C 602.803,403.143 603.97,407.643 605.5,412C 612.524,411.927 619.524,411.593 626.5,411C 630.624,419.594 627.791,424.427 618,425.5C 603.21,423.049 596.21,414.383 597,399.5C 597.698,398.309 598.531,397.309 599.5,396.5 Z M 577.5,409.5 C 582.493,409.997 583.493,412.164 580.5,416C 575.148,416.175 574.148,414.009 577.5,409.5 Z M 463.5,423.5 C 464.097,423.735 464.43,424.235 464.5,425C 462.948,431.091 461.782,437.258 461,443.5C 456.044,447.518 453.71,446.185 454,439.5C 455.906,433.345 459.072,428.012 463.5,423.5 Z M 732.5,423.5 C 737.937,428.642 740.103,434.975 739,442.5C 734.321,445.807 731.655,444.474 731,438.5C 730.092,433.311 730.592,428.311 732.5,423.5 Z M 572.5,431.5 C 574.199,431.34 575.866,431.506 577.5,432C 582.456,436.425 588.123,437.591 594.5,435.5C 594.891,442.626 591.558,447.126 584.5,449C 580.833,449.667 577.167,449.667 573.5,449C 565.844,443.569 565.511,437.736 572.5,431.5 Z M 609.5,443.5 C 611.199,443.34 612.866,443.506 614.5,444C 616.954,446.781 619.954,448.781 623.5,450C 627.918,450.376 632.251,449.876 636.5,448.5C 646.478,451.316 647.144,455.816 638.5,462C 635.327,464.087 631.994,465.921 628.5,467.5C 619.782,462.449 613.115,455.449 608.5,446.5C 609.127,445.583 609.461,444.583 609.5,443.5 Z M 597.5,461.5 C 598.675,461.281 599.675,461.614 600.5,462.5C 604.467,471.617 611.467,476.784 621.5,478C 626.5,478.667 631.5,478.667 636.5,478C 642.904,476.088 649.404,474.588 656,473.5C 661.933,473.631 666.267,476.297 669,481.5C 670.036,503.535 681.536,515.369 703.5,517C 706.953,518.728 708.786,521.562 709,525.5C 709.952,536.482 710.618,547.482 711,558.5C 711.196,569.018 713.53,579.018 718,588.5C 721.958,594.248 725.791,600.081 729.5,606C 726.903,609.719 723.737,612.886 720,615.5C 716.046,624.714 717.046,633.38 723,641.5C 722.174,687.653 703.007,724.153 665.5,751C 657.34,756.914 649.007,762.581 640.5,768C 634.202,771.21 627.535,773.21 620.5,774C 603.757,775.901 587.423,774.234 571.5,769C 551.288,760.561 531.954,750.561 513.5,739C 505.775,731.272 499.609,722.439 495,712.5C 484.43,690.958 477.597,668.291 474.5,644.5C 475.064,642.181 475.564,639.847 476,637.5C 482.126,631.377 484.126,624.044 482,615.5C 480.459,611.13 477.292,608.797 472.5,608.5C 471.304,607.441 470.637,606.107 470.5,604.5C 471.444,600.611 472.944,596.944 475,593.5C 481.627,586.857 485.627,578.857 487,569.5C 487.388,552.491 487.388,535.491 487,518.5C 494.312,515.834 501.812,513.667 509.5,512C 521.68,505.145 527.18,494.645 526,480.5C 528.194,477.819 531.027,476.319 534.5,476C 544.842,475.399 555.176,475.566 565.5,476.5C 573.13,476.877 580.13,475.044 586.5,471C 590.359,467.968 594.026,464.802 597.5,461.5 Z M 727.5,465.5 C 749.333,463.828 755.5,472.828 746,492.5C 740.906,497.278 735.573,497.611 730,493.5C 726.659,485.129 724.992,476.463 725,467.5C 725.995,466.934 726.828,466.267 727.5,465.5 Z M 708.5,474.5 C 710.411,474.574 711.578,475.574 712,477.5C 714.295,489.078 710.129,497.244 699.5,502C 696.808,502.43 694.141,502.263 691.5,501.5C 691.351,500.448 691.517,499.448 692,498.5C 695.966,495.536 699.633,492.203 703,488.5C 704.649,483.734 706.482,479.067 708.5,474.5 Z M 496.5,495.5 C 500.319,495.45 503.653,496.616 506.5,499C 502.691,500.588 498.691,500.922 494.5,500C 493.663,498.989 493.33,497.822 493.5,496.5C 494.791,496.737 495.791,496.404 496.5,495.5 Z M 431.5,501.5 C 433.595,501.76 434.928,502.926 435.5,505C 433.973,509.223 431.807,513.056 429,516.5C 427.87,511.08 428.703,506.08 431.5,501.5 Z M 762.5,501.5 C 764.017,501.511 765.184,502.177 766,503.5C 766.791,507.926 766.457,512.259 765,516.5C 761.785,511.814 760.951,506.814 762.5,501.5 Z M 222.5,503.5 C 228.002,506.806 233.669,509.973 239.5,513C 247.584,514.343 255.584,516.009 263.5,518C 269.444,521.611 275.111,525.611 280.5,530C 292.05,535.396 304.05,536.73 316.5,534C 319.677,532.15 322.843,530.317 326,528.5C 333.927,532.213 341.094,537.046 347.5,543C 353.994,547.014 360.994,548.348 368.5,547C 374.387,544.981 380.387,543.481 386.5,542.5C 393.23,542.715 398.397,545.715 402,551.5C 408.74,564.739 414.074,578.405 418,592.5C 415.217,589.86 412.05,587.86 408.5,586.5C 406.617,586.876 405.117,587.876 404,589.5C 397.266,599.004 396.933,608.671 403,618.5C 410.5,628.667 419.333,637.5 429.5,645C 434.215,648.399 439.215,649.066 444.5,647C 446.81,643.848 449.643,641.348 453,639.5C 456.653,640.487 458.987,642.82 460,646.5C 462.805,671.25 469.472,694.917 480,717.5C 480.494,719.134 480.66,720.801 480.5,722.5C 478.011,722.702 475.677,722.202 473.5,721C 468.077,717.581 463.244,713.415 459,708.5C 450.946,698.112 443.279,687.446 436,676.5C 425.123,665.806 412.29,658.306 397.5,654C 395.667,652.833 394.167,651.333 393,649.5C 390.262,641.746 388.596,633.746 388,625.5C 386.255,605.195 384.922,584.862 384,564.5C 383.695,559.585 382.195,555.085 379.5,551C 377.365,550.365 375.365,550.699 373.5,552C 370.322,557.355 366.655,562.355 362.5,567C 355.833,571.667 349.167,571.667 342.5,567C 338.783,563.615 334.783,560.615 330.5,558C 327.833,557.333 325.167,557.333 322.5,558C 319.743,564.176 316.91,570.343 314,576.5C 301.926,586.726 290.926,585.726 281,573.5C 278.775,569.719 277.109,565.719 276,561.5C 270.892,558.413 266.558,559.413 263,564.5C 255.929,583.191 243.763,587.358 226.5,577C 222.885,573.381 220.051,569.214 218,564.5C 215.682,545.733 216.348,527.067 220,508.5C 220.366,506.548 221.199,504.882 222.5,503.5 Z M 972.5,504.5 C 977.566,503.908 980.066,506.242 980,511.5C 983.12,527.028 984.453,542.695 984,558.5C 978.606,579.452 966.439,584.952 947.5,575C 940.649,568.117 934.149,560.95 928,553.5C 923.838,561.828 919.171,569.828 914,577.5C 908.25,583.311 901.75,584.145 894.5,580C 888.968,578.003 884.801,574.503 882,569.5C 882.505,561.012 878.672,556.846 870.5,557C 865.644,559.26 861.311,562.26 857.5,566C 850.244,570.845 843.244,570.512 836.5,565C 831.39,560.55 827.89,555.05 826,548.5C 821.663,546.438 818.996,547.771 818,552.5C 817.055,556.114 816.388,559.781 816,563.5C 815.171,586.2 813.838,608.867 812,631.5C 811.249,641.843 806.749,650.01 798.5,656C 786.683,661.07 775.683,667.403 765.5,675C 755.732,686.044 746.565,697.544 738,709.5C 734.5,713 731,716.5 727.5,720C 725.091,721.707 722.425,722.54 719.5,722.5C 719.338,720.473 719.505,718.473 720,716.5C 729.923,694.068 736.59,670.735 740,646.5C 741.4,645.884 742.9,645.551 744.5,645.5C 752.786,648.547 760.786,648.047 768.5,644C 780.567,634.94 790.067,623.773 797,610.5C 798.143,603.933 796.809,597.933 793,592.5C 788.431,588.839 783.598,588.506 778.5,591.5C 781.451,579.175 785.951,567.175 792,555.5C 795.083,550.412 798.917,545.912 803.5,542C 805.438,540.128 807.771,539.295 810.5,539.5C 831.957,548.505 851.29,545.338 868.5,530C 870.034,529.077 871.701,528.577 873.5,528.5C 893.354,538.623 911.354,536.123 927.5,521C 930.167,519.667 932.833,518.333 935.5,517C 944.539,515.217 953.539,513.217 962.5,511C 966.411,509.556 969.744,507.389 972.5,504.5 Z M 450.5,510.5 C 453.685,510.02 456.519,510.686 459,512.5C 460.585,517.085 461.918,521.752 463,526.5C 466.007,530.999 469.174,535.332 472.5,539.5C 472.182,540.647 471.516,541.481 470.5,542C 465.833,542.333 461.167,542.667 456.5,543C 454.392,543.36 452.392,544.027 450.5,545C 448.255,548.872 446.755,553.038 446,557.5C 445.047,559.455 443.713,561.122 442,562.5C 439.951,546.928 441.285,531.594 446,516.5C 447.332,514.34 448.832,512.34 450.5,510.5 Z M 741.5,510.5 C 744.155,511.001 746.322,512.334 748,514.5C 752.276,527.324 754.776,540.49 755.5,554C 755.735,557.496 754.902,560.663 753,563.5C 749.555,558.945 746.888,553.945 745,548.5C 739.956,543.373 733.789,541.206 726.5,542C 724.777,541.477 723.444,540.477 722.5,539C 725.615,535.506 729.115,532.339 733,529.5C 734,525.167 735,520.833 736,516.5C 737.36,513.977 739.193,511.977 741.5,510.5 Z M 409.5,531.5 C 421.011,530.668 421.345,532.335 410.5,536.5C 406.872,535.564 406.539,533.898 409.5,531.5 Z M 778.5,532.5 C 781.96,533.395 784.96,535.062 787.5,537.5C 782.977,538.736 779.977,537.07 778.5,532.5 Z M 465.5,556.5 C 470.155,555.819 472.822,557.819 473.5,562.5C 472.822,565.544 471.989,568.544 471,571.5C 466.73,579.041 462.73,586.707 459,594.5C 456.131,601.575 456.131,608.575 459,615.5C 462.342,617.17 464.509,619.836 465.5,623.5C 462.858,627.266 460.025,627.266 457,623.5C 454.558,620.952 452.892,617.952 452,614.5C 448.088,595.305 451.088,577.305 461,560.5C 462.397,558.93 463.897,557.596 465.5,556.5 Z M 728.5,556.5 C 730.39,556.297 731.89,556.963 733,558.5C 733.29,565.748 736.623,571.082 743,574.5C 749.506,588.571 751.173,603.237 748,618.5C 746.039,623.782 742.706,627.782 738,630.5C 734.154,629.13 733.487,626.796 736,623.5C 739.092,622.077 741.092,619.743 742,616.5C 742.667,612.167 742.667,607.833 742,603.5C 737.788,592.957 733.121,582.623 728,572.5C 725.929,566.957 726.095,561.624 728.5,556.5 Z M 556.5,581.5 C 561.104,582.836 563.438,586.003 563.5,591C 563.565,594.442 561.898,596.608 558.5,597.5C 556.803,596.636 555.637,595.303 555,593.5C 554.081,589.269 554.581,585.269 556.5,581.5 Z M 831.5,582.5 C 840.208,582.299 848.875,582.799 857.5,584C 860,585.167 861.833,587 863,589.5C 862.749,605.683 860.749,621.683 857,637.5C 854.985,658.262 844.485,664.095 825.5,655C 824.874,654.25 824.374,653.416 824,652.5C 826.495,629.198 828.995,605.865 831.5,582.5 Z M 341.5,583.5 C 348.175,583.334 354.842,583.5 361.5,584C 365.438,584.214 368.272,586.047 370,589.5C 373.024,609.411 375.191,629.411 376.5,649.5C 376.182,650.647 375.516,651.481 374.5,652C 367.387,654.07 360.22,655.903 353,657.5C 350.333,657.833 348.333,656.833 347,654.5C 341.711,632.766 338.377,610.766 337,588.5C 338.025,586.313 339.525,584.646 341.5,583.5 Z M 515.5,583.5 C 518.488,583.155 519.821,584.488 519.5,587.5C 519.337,591.5 517.337,593 513.5,592C 512.186,588.767 512.853,585.933 515.5,583.5 Z M 650.5,583.5 C 651.5,583.5 652.5,583.5 653.5,583.5C 653.665,587.182 653.499,590.848 653,594.5C 652,595.5 651,596.5 650,597.5C 646.847,597.014 645.014,595.18 644.5,592C 645.927,588.743 647.927,585.91 650.5,583.5 Z M 688.5,586.5 C 695.994,588.931 696.994,592.764 691.5,598C 689.564,598.813 687.564,599.313 685.5,599.5C 686.293,595.12 687.293,590.786 688.5,586.5 Z M 982.5,588.5 C 984.144,588.286 985.644,588.62 987,589.5C 986.223,639.719 979.223,689.052 966,737.5C 952.769,776.628 934.769,813.294 912,847.5C 896.786,871.391 879.286,893.558 859.5,914C 850.872,922.818 840.539,928.818 828.5,932C 814.396,933.031 804.229,927.198 798,914.5C 797.333,913.167 797.333,911.833 798,910.5C 803.248,900.33 809.248,890.663 816,881.5C 841.877,849.625 866.21,816.625 889,782.5C 919.571,723.217 935.904,660.217 938,593.5C 939.062,592.903 940.228,592.57 941.5,592.5C 946.973,593.491 952.306,594.991 957.5,597C 960.5,597.667 963.5,597.667 966.5,597C 972.053,594.392 977.387,591.559 982.5,588.5 Z M 215.5,589.5 C 219.758,589.295 222.758,591.128 224.5,595C 230.612,597.414 236.946,598.081 243.5,597C 250.154,596.002 256.821,595.168 263.5,594.5C 264.347,674.532 287.18,747.532 332,813.5C 351.062,842.275 372.062,869.609 395,895.5C 396.889,898.112 398.389,900.945 399.5,904C 394.923,919.972 384.256,926.972 367.5,925C 359.061,923.447 351.728,919.78 345.5,914C 334.964,905.131 325.464,895.298 317,884.5C 291.11,851.57 268.777,816.236 250,778.5C 225.363,719.316 213.03,657.649 213,593.5C 213.662,592.016 214.496,590.683 215.5,589.5 Z M 919.5,591.5 C 920.966,592.347 921.8,593.68 922,595.5C 922.767,618.468 920.434,641.135 915,663.5C 907.692,698.591 896.525,732.257 881.5,764.5C 881.187,748.479 880.687,732.479 880,716.5C 876.999,704.498 872.999,692.831 868,681.5C 867.015,677.736 866.515,673.903 866.5,670C 870.718,645.907 874.551,621.74 878,597.5C 879.698,596.267 881.698,595.6 884,595.5C 892.487,596.483 900.987,596.649 909.5,596C 913.264,595.148 916.597,593.648 919.5,591.5 Z M 283.5,595.5 C 295.851,595.168 308.185,595.501 320.5,596.5C 324.19,614.116 327.69,631.782 331,649.5C 332.8,657.424 333.466,665.424 333,673.5C 328.287,684.297 323.954,695.297 320,706.5C 316.038,721.604 313.372,736.937 312,752.5C 301.798,725.228 292.798,697.561 285,669.5C 280.518,645.361 277.684,621.027 276.5,596.5C 279.059,596.802 281.393,596.468 283.5,595.5 Z M 427.5,608.5 C 430.652,608.047 433.152,609.047 435,611.5C 437.438,618.489 438.605,625.489 438.5,632.5C 430.943,626.112 424.277,618.945 418.5,611C 421.797,610.796 424.797,609.963 427.5,608.5 Z M 767.5,608.5 C 771.827,609.109 775.827,610.609 779.5,613C 775.134,616.778 770.301,618.944 765,619.5C 764.333,616.5 764.333,613.5 765,610.5C 765.995,609.934 766.828,609.267 767.5,608.5 Z M 370.5,668.5 C 383.97,667.975 396.97,670.141 409.5,675C 427.071,688.911 440.571,706.078 450,726.5C 454.718,744.86 447.551,755.36 428.5,758C 425.438,759.061 422.938,760.894 421,763.5C 416.768,784.878 403.935,793.045 382.5,788C 379.562,790.025 377.728,792.858 377,796.5C 368.18,809.809 358.18,810.809 347,799.5C 336.067,781.444 330.567,761.778 330.5,740.5C 330.623,721.382 335.123,703.382 344,686.5C 347.083,681.412 350.917,676.912 355.5,673C 360.414,670.747 365.414,669.247 370.5,668.5 Z M 811.5,668.5 C 833.001,668.493 848.501,678.16 858,697.5C 865.961,713.263 868.961,729.929 867,747.5C 864.286,765.973 858.953,783.64 851,800.5C 848.612,803.634 845.446,805.467 841.5,806C 835.747,806.851 830.08,806.517 824.5,805C 820.167,799.333 815.833,793.667 811.5,788C 807.143,787.369 802.809,787.535 798.5,788.5C 791.339,787.826 785.839,784.493 782,778.5C 780.067,773.022 777.567,767.855 774.5,763C 769.81,761.281 764.977,760.115 760,759.5C 746.333,752.175 742.333,741.175 748,726.5C 756.389,706.781 769.222,690.614 786.5,678C 794.472,673.515 802.805,670.348 811.5,668.5 Z M 476.5,735.5 C 482.563,734.838 488.23,736.004 493.5,739C 501.298,747.138 509.965,754.138 519.5,760C 537.329,769.747 554.996,779.747 572.5,790C 585.295,800.672 585.629,811.672 573.5,823C 563.831,828.178 553.831,828.845 543.5,825C 536.928,821.098 530.928,816.431 525.5,811C 523.167,810.333 520.833,810.333 518.5,811C 517.383,814.073 517.216,817.24 518,820.5C 519.935,825.473 521.768,830.473 523.5,835.5C 521.441,841.726 517.275,845.726 511,847.5C 505.896,845.366 500.729,843.366 495.5,841.5C 492.832,841.745 490.998,843.079 490,845.5C 489.667,853.167 489.333,860.833 489,868.5C 486.832,875.836 481.999,878.336 474.5,876C 468.18,871.557 461.347,870.057 454,871.5C 450.983,878.799 453.316,883.466 461,885.5C 466.674,900.468 462.674,912.135 449,920.5C 433.127,910.129 417.96,898.796 403.5,886.5C 411.986,882.17 419.486,876.503 426,869.5C 429.334,862.155 432.668,854.821 436,847.5C 440.916,843.957 446.083,840.79 451.5,838C 457.674,832.481 462.507,825.981 466,818.5C 470.619,813.39 476.452,810.89 483.5,811C 496.97,803.58 503.97,792.08 504.5,776.5C 504.36,764.872 499.36,756.039 489.5,750C 486.524,749.243 484.691,750.409 484,753.5C 482.75,756.077 482.416,758.743 483,761.5C 484.565,765.4 486.565,769.066 489,772.5C 491.358,781.049 489.524,788.549 483.5,795C 479.91,796.893 476.077,797.727 472,797.5C 464.53,796.281 457.03,795.781 449.5,796C 448.919,796.893 448.585,797.893 448.5,799C 450.263,804.731 450.763,810.564 450,816.5C 447.549,822.616 443.049,826.116 436.5,827C 428.416,827.238 420.416,828.071 412.5,829.5C 412.167,830.5 411.833,831.5 411.5,832.5C 412.709,836.589 414.209,840.589 416,844.5C 417.876,858.095 412.043,865.762 398.5,867.5C 395.205,867.705 392.205,866.872 389.5,865C 375.849,852.542 365.182,838.042 357.5,821.5C 361.891,820.992 366.225,820.158 370.5,819C 376.844,815.496 382.844,811.496 388.5,807C 395.001,804.699 401.668,803.033 408.5,802C 411.661,800.587 414.661,798.92 417.5,797C 425.198,789.636 432.531,781.97 439.5,774C 446.627,768.541 453.461,762.708 460,756.5C 463.839,751.821 466.339,746.488 467.5,740.5C 470.154,738.011 473.154,736.344 476.5,735.5 Z M 715.5,736.5 C 722.612,736.773 727.779,740.106 731,746.5C 734.368,754.746 738.868,762.246 744.5,769C 751.319,771.367 757.986,774.034 764.5,777C 769.794,788.19 778.127,796.523 789.5,802C 799.648,802.907 807.981,807.24 814.5,815C 820.713,819.625 827.713,821.625 835.5,821C 836.578,821.674 837.245,822.674 837.5,824C 830.446,840.785 819.779,854.785 805.5,866C 795.57,872.113 788.07,869.947 783,859.5C 781.131,850.606 780.131,841.606 780,832.5C 779.626,831.584 779.126,830.75 778.5,830C 773.094,829.511 767.76,830.011 762.5,831.5C 755.544,830.78 751.044,827.114 749,820.5C 747.358,815.292 746.358,809.959 746,804.5C 744.401,798.359 740.401,796.026 734,797.5C 727.768,798.681 721.601,798.514 715.5,797C 707.98,790.772 705.48,782.938 708,773.5C 710.416,768.999 713.083,764.666 716,760.5C 717.15,758.246 717.484,755.913 717,753.5C 709.916,751.307 704.25,753.307 700,759.5C 688.199,775.223 688.699,790.39 701.5,805C 703.901,807.062 706.567,808.729 709.5,810C 715.49,811.496 721.49,812.83 727.5,814C 731.817,818.797 734.984,824.297 737,830.5C 738.713,831.878 740.047,833.545 741,835.5C 747.333,839.833 753.667,844.167 760,848.5C 763.519,855.379 766.852,862.379 770,869.5C 776.176,876.333 783.342,881.833 791.5,886C 780.428,897.076 768.761,907.41 756.5,917C 750.917,920.482 745.584,920.149 740.5,916C 737.067,912.958 734.234,909.458 732,905.5C 731.333,903.167 731.333,900.833 732,898.5C 733.333,895.167 734.667,891.833 736,888.5C 737.379,884.525 736.213,881.691 732.5,880C 726.014,878.74 719.514,877.574 713,876.5C 711.395,875.899 710.062,874.899 709,873.5C 707.781,866.579 707.114,859.579 707,852.5C 707.623,844.497 704.123,841.33 696.5,843C 692.989,845.505 689.156,847.339 685,848.5C 677.071,845.929 673.071,840.595 673,832.5C 676.435,827.699 678.601,822.366 679.5,816.5C 679.69,813.206 678.19,811.206 675,810.5C 667.465,813.023 661.298,817.523 656.5,824C 646.791,829.663 638.625,827.83 632,818.5C 624.63,806.741 626.463,796.575 637.5,788C 658.869,774.316 679.536,759.649 699.5,744C 704.542,740.643 709.876,738.143 715.5,736.5 Z M 601.5,795.5 C 604.685,795.02 607.519,795.686 610,797.5C 611.405,803.063 612.405,808.73 613,814.5C 614.059,817.618 615.392,820.618 617,823.5C 623.316,830.65 629.816,837.65 636.5,844.5C 624.654,852.259 612.321,859.259 599.5,865.5C 586.839,858.838 574.506,851.672 562.5,844C 573.327,840.674 582.827,835.174 591,827.5C 592.586,825.33 593.92,822.996 595,820.5C 596.466,813.907 597.466,807.241 598,800.5C 598.997,798.677 600.164,797.01 601.5,795.5 Z M 539.5,845.5 C 545.095,847.98 550.095,851.48 554.5,856C 563.833,862 573.167,868 582.5,874C 573.868,877.599 565.201,881.099 556.5,884.5C 544.845,879.682 534.679,872.682 526,863.5C 525.333,861.833 525.333,860.167 526,858.5C 529.159,852.689 533.659,848.356 539.5,845.5 Z M 654.5,848.5 C 661.561,848.701 666.728,852.034 670,858.5C 670.452,864.102 668.285,868.602 663.5,872C 635.512,891.494 605.178,906.494 572.5,917C 551.997,923.501 531.163,928.668 510,932.5C 504.534,932.007 503.2,929.341 506,924.5C 509.577,921.627 513.411,919.127 517.5,917C 541.085,906.805 564.752,896.805 588.5,887C 612.04,876.411 634.04,863.578 654.5,848.5 Z M 507.5,870.5 C 517.351,877.271 526.684,884.771 535.5,893C 527.765,896.368 519.765,898.868 511.5,900.5C 504.892,899.072 499.392,895.738 495,890.5C 494.333,889.167 494.333,887.833 495,886.5C 499,881.005 503.166,875.671 507.5,870.5 Z M 687.5,871.5 C 692.991,876.078 697.824,881.412 702,887.5C 703.187,889.044 703.52,890.711 703,892.5C 663.218,919.805 620.051,940.305 573.5,954C 550.099,960.767 526.432,966.434 502.5,971C 493.907,972.825 485.24,973.492 476.5,973C 468.917,971.335 466.417,966.835 469,959.5C 470.938,956.894 473.438,955.061 476.5,954C 503.552,948.657 530.552,942.991 557.5,937C 605.989,924.716 649.322,902.883 687.5,871.5 Z M 483.5,905.5 C 487.443,906.276 489.943,908.609 491,912.5C 491.954,920.11 490.954,927.443 488,934.5C 487.25,935.126 486.416,935.626 485.5,936C 482,936.167 478.5,936.333 475,936.5C 470.719,936.601 466.552,936.101 462.5,935C 461.446,933.612 461.28,932.112 462,930.5C 469.145,923.693 475.145,916.027 480,907.5C 481.302,906.915 482.469,906.249 483.5,905.5 Z M 713.5,906.5 C 719.719,914.897 726.552,922.897 734,930.5C 734.959,934.421 733.792,937.588 730.5,940C 692.729,966.391 652.396,988.391 609.5,1006C 575.604,1019.11 540.604,1027.78 504.5,1032C 487.748,1033.1 471.082,1032.43 454.5,1030C 443.863,1028.35 435.029,1023.52 428,1015.5C 425.175,1005.31 428.342,997.474 437.5,992C 442.393,990.488 447.393,989.488 452.5,989C 520.189,986.244 584.856,970.91 646.5,943C 669.289,931.279 691.622,919.113 713.5,906.5 Z M 725.5,961.5 C 726.833,961.5 728.167,961.5 729.5,961.5C 728.777,969.669 724.443,973.336 716.5,972.5C 716.343,971.127 716.51,969.793 717,968.5C 719.628,965.79 722.461,963.456 725.5,961.5 Z M 693.5,986.5 C 707.524,986.334 721.524,986.834 735.5,988C 745.68,988.645 755.68,990.311 765.5,993C 773.122,1001.89 773.289,1011.05 766,1020.5C 764.581,1021.46 763.081,1022.29 761.5,1023C 753.651,1025.2 745.651,1026.53 737.5,1027C 708.451,1028.09 679.451,1027.43 650.5,1025C 641.543,1024.68 633.209,1022.35 625.5,1018C 647.06,1004.88 669.726,994.38 693.5,986.5 Z"/></g>
<g><path style="opacity:0.004" fill="#000000" d="M 985.5,187.5 C 985.5,188.167 985.833,188.5 986.5,188.5C 986.44,189.043 986.107,189.376 985.5,189.5C 984.227,188.743 984.227,188.077 985.5,187.5 Z"/></g>
<g><path style="opacity:0.96" fill="#144a79" d="M 1044.5,200.5 C 1050.57,206.754 1055.74,213.754 1060,221.5C 1061.15,231.064 1060.15,240.397 1057,249.5C 1049.73,272.323 1043.06,295.323 1037,318.5C 1036.2,320.259 1036.37,321.926 1037.5,323.5C 1055.61,312.564 1072.44,299.897 1088,285.5C 1089,283.833 1090,282.167 1091,280.5C 1091.06,276.097 1091.23,271.764 1091.5,267.5C 1100.61,276.61 1108.61,286.61 1115.5,297.5C 1115,298.881 1114,299.547 1112.5,299.5C 1103.25,296.226 1094.59,297.392 1086.5,303C 1064.89,317.611 1043.56,332.611 1022.5,348C 1018.34,350.832 1013.84,352.999 1009,354.5C 1007.5,354.333 1006.67,353.5 1006.5,352C 1018.72,315.33 1029.72,278.33 1039.5,241C 1037.4,241.032 1035.4,241.699 1033.5,243C 1018.64,252.598 1004.3,262.932 990.5,274C 985.966,278.199 981.799,282.699 978,287.5C 976.271,291.438 976.104,295.438 977.5,299.5C 977.363,301.107 976.696,302.441 975.5,303.5C 966.069,294.634 958.069,284.634 951.5,273.5C 956.398,269.317 960.898,269.984 965,275.5C 968.879,273.811 972.712,271.978 976.5,270C 997.263,255.869 1017.76,241.369 1038,226.5C 1043.96,218.876 1046.12,210.21 1044.5,200.5 Z"/></g>
<g><path style="opacity:0.962" fill="#144a79" d="M 144.5,232.5 C 155.925,232.961 164.758,237.961 171,247.5C 171.667,249.5 172.333,251.5 173,253.5C 173.5,261.827 173.666,270.16 173.5,278.5C 190.861,278.82 208.195,278.32 225.5,277C 232.369,276.427 238.869,274.594 245,271.5C 246.732,271.734 247.566,272.734 247.5,274.5C 244.094,283.405 238.094,289.905 229.5,294C 209.896,295.906 190.229,296.906 170.5,297C 166.892,297.026 163.558,297.859 160.5,299.5C 168.482,307.646 177.482,314.479 187.5,320C 190.858,321.453 194.358,322.287 198,322.5C 204.183,321.393 210.35,320.56 216.5,320C 206.326,333.002 195.993,345.836 185.5,358.5C 185.349,352.255 183.516,346.588 180,341.5C 160.328,320.166 137.495,303 111.5,290C 108.724,288.963 105.89,288.13 103,287.5C 99.6124,288.947 96.1124,289.947 92.5,290.5C 92.259,287.206 93.0924,284.206 95,281.5C 105.746,265.52 118.246,251.02 132.5,238C 136.481,235.838 140.481,234.005 144.5,232.5 Z M 132.5,250.5 C 154.553,249.724 164.386,260.391 162,282.5C 160.661,289.14 156.828,292.973 150.5,294C 142.149,288.825 134.149,283.158 126.5,277C 123.296,274.131 120.463,270.965 118,267.5C 118.267,263.292 119.934,259.625 123,256.5C 125.843,253.837 129.009,251.837 132.5,250.5 Z"/></g>
<g><path style="opacity:0.962" fill="#144b79" d="M 82.5,334.5 C 101.333,333.807 113.833,342.474 120,360.5C 120.167,363.167 120.333,365.833 120.5,368.5C 119.735,378.323 118.069,387.99 115.5,397.5C 115.279,400.791 116.613,403.291 119.5,405C 127.516,409.761 136.016,413.261 145,415.5C 146.967,415.458 148.801,414.958 150.5,414C 153.833,411.333 157.167,408.667 160.5,406C 161.449,405.383 162.282,405.549 163,406.5C 159.401,420.389 154.068,433.722 147,446.5C 145.89,448.037 144.39,448.703 142.5,448.5C 142.176,442.686 139.843,437.852 135.5,434C 110.045,419.607 83.3781,407.94 55.5,399C 53.5,398.333 51.5,398.333 49.5,399C 46.1208,400.107 42.9541,401.607 40,403.5C 39.228,403.355 38.5613,403.022 38,402.5C 42.964,386.558 49.6306,371.224 58,356.5C 64.1959,346.795 72.3626,339.462 82.5,334.5 Z M 80.5,350.5 C 93.899,352.28 104.066,358.947 111,370.5C 111.938,379.913 110.105,388.747 105.5,397C 92.2717,393.73 79.6051,388.73 67.5,382C 64.3699,379.872 61.5366,377.372 59,374.5C 60.6677,361.661 67.8344,353.661 80.5,350.5 Z"/></g>
<g><path style="opacity:0.965" fill="#144a79" d="M 1130.5,335.5 C 1133.09,336.254 1134.92,337.921 1136,340.5C 1140.19,349.417 1144.19,358.417 1148,367.5C 1148.98,369.74 1149.48,372.073 1149.5,374.5C 1146.58,374.54 1143.91,373.707 1141.5,372C 1131.1,371.763 1121.1,373.763 1111.5,378C 1090.72,385.388 1071.39,395.388 1053.5,408C 1051.95,409.214 1050.78,410.714 1050,412.5C 1049.76,415.289 1049.09,417.956 1048,420.5C 1045.12,422.028 1042.79,421.362 1041,418.5C 1033.99,408.143 1029.49,396.81 1027.5,384.5C 1031.2,385.508 1034.87,386.842 1038.5,388.5C 1041.83,387.667 1045.17,386.833 1048.5,386C 1067.49,378.779 1086.16,370.779 1104.5,362C 1112.26,358.375 1119.42,353.875 1126,348.5C 1128.26,344.463 1129.76,340.129 1130.5,335.5 Z"/></g>
<g><path style="opacity:0.961" fill="#144a79" d="M 1153.5,406.5 C 1160.26,404.722 1164.76,407.056 1167,413.5C 1175.81,442.065 1183.31,470.732 1189.5,499.5C 1180.91,503.198 1172.08,504.532 1163,503.5C 1162.48,501.711 1162.81,500.044 1164,498.5C 1167.33,495.167 1170.67,491.833 1174,488.5C 1177.16,480.596 1176.5,472.93 1172,465.5C 1170.77,464.892 1169.44,464.559 1168,464.5C 1138.6,471.474 1109.44,479.307 1080.5,488C 1077.89,489.938 1076.06,492.438 1075,495.5C 1074.25,499.363 1073.09,503.029 1071.5,506.5C 1070.2,505.91 1069.37,504.91 1069,503.5C 1063.75,489.503 1059.92,475.17 1057.5,460.5C 1058.87,460.343 1060.21,460.51 1061.5,461C 1066.11,466.974 1072.11,469.641 1079.5,469C 1100.7,464.451 1121.7,459.118 1142.5,453C 1149.49,451.116 1156.15,448.45 1162.5,445C 1165.68,427.803 1158.35,418.136 1140.5,416C 1138,414.451 1138,412.784 1140.5,411C 1144.98,409.564 1149.31,408.064 1153.5,406.5 Z"/></g>
<g><path style="opacity:0.959" fill="#144a79" d="M 23.5,442.5 C 25.288,442.215 26.9547,442.548 28.5,443.5C 27.9879,449.988 30.6546,454.488 36.5,457C 56.7517,461.987 77.085,466.654 97.5,471C 108.403,473.199 117.57,478.365 125,486.5C 133.228,507.39 131.894,527.723 121,547.5C 116.178,555.324 109.178,559.324 100,559.5C 72.6942,556.866 45.5275,553.199 18.5,548.5C 15.2054,548.295 12.2054,549.128 9.5,551C 7.35467,554.312 4.688,557.146 1.5,559.5C 1.16667,558.667 0.833333,557.833 0.5,557C 2.61102,542.099 6.11102,527.599 11,513.5C 13.2291,516.5 14.8957,519.833 16,523.5C 18.4075,525.956 21.2409,527.789 24.5,529C 47.7801,535.489 71.4467,539.989 95.5,542.5C 107.719,542.126 115.885,536.126 120,524.5C 124.073,515.243 124.407,505.909 121,496.5C 114.104,489.8 105.938,485.3 96.5,483C 75.2405,477.548 53.7405,473.381 32,470.5C 26.4288,471.728 22.2622,474.895 19.5,480C 18.552,480.483 17.552,480.649 16.5,480.5C 15.8734,467.193 18.2067,454.527 23.5,442.5 Z"/></g>
<g><path style="opacity:0.959" fill="#144a79" d="M 1199.5,585.5 C 1199.5,586.833 1199.5,588.167 1199.5,589.5C 1165.57,608.256 1130.24,623.923 1093.5,636.5C 1092.02,639.678 1090.85,643.012 1090,646.5C 1088.87,648.211 1087.37,648.711 1085.5,648C 1084.14,646.055 1083.3,643.888 1083,641.5C 1081,632.167 1081,622.833 1083,613.5C 1083.67,612.833 1084.33,612.167 1085,611.5C 1089.52,615.242 1094.68,616.409 1100.5,615C 1108.98,612.759 1116.98,609.426 1124.5,605C 1125.89,603.829 1126.73,602.329 1127,600.5C 1128.1,589.921 1127.1,579.588 1124,569.5C 1121.75,567.623 1119.25,566.123 1116.5,565C 1107.19,562.064 1097.86,559.23 1088.5,556.5C 1087.71,559.848 1086.88,563.182 1086,566.5C 1084.44,568.515 1082.61,568.848 1080.5,567.5C 1077.47,555.646 1076.8,543.646 1078.5,531.5C 1079.55,531.351 1080.55,531.517 1081.5,532C 1087.79,539.282 1095.45,544.615 1104.5,548C 1128.27,557.59 1152.27,566.59 1176.5,575C 1184.22,578.528 1191.89,582.028 1199.5,585.5 Z M 1136.5,573.5 C 1149.63,574.544 1161.96,578.211 1173.5,584.5C 1173.02,585.478 1172.36,586.311 1171.5,587C 1159.99,592.506 1147.99,596.173 1135.5,598C 1133.95,594.902 1133.29,591.569 1133.5,588C 1133.17,582.844 1134.17,578.011 1136.5,573.5 Z"/></g>
<g><path style="opacity:0.864" fill="#144a79" d="M 663.5,539.5 C 669.842,539.334 676.175,539.5 682.5,540C 686.552,540.627 690.218,542.127 693.5,544.5C 692.975,545.192 692.308,545.692 691.5,546C 679.464,546.162 667.464,546.829 655.5,548C 650.35,548.994 645.35,550.494 640.5,552.5C 639.167,551.833 639.167,551.167 640.5,550.5C 647.599,545.449 655.266,541.782 663.5,539.5 Z"/></g>
<g><path style="opacity:0.89" fill="#144a79" d="M 528.5,540.5 C 536.942,540.29 545.275,541.124 553.5,543C 558.479,543.808 561.146,546.642 561.5,551.5C 545.697,550.097 530.03,547.93 514.5,545C 515.328,544.085 516.328,543.419 517.5,543C 521.312,542.205 524.979,541.371 528.5,540.5 Z"/></g>
<g><path style="opacity:0.965" fill="#144a79" d="M 533.5,563.5 C 541.77,561.919 548.77,564.086 554.5,570C 558.841,570.093 563.174,570.093 567.5,570C 572.544,573.905 575.711,579.072 577,585.5C 579.171,592.825 577.837,599.491 573,605.5C 570.719,608.903 567.886,611.737 564.5,614C 560.237,615.539 557.57,614.206 556.5,610C 550.105,609.819 543.772,609.652 537.5,609.5C 538.982,607.517 540.649,605.684 542.5,604C 542.167,603.667 541.833,603.333 541.5,603C 529.553,603.455 518.22,601.121 507.5,596C 502.211,592.626 501.378,588.459 505,583.5C 511.929,572.969 521.429,566.303 533.5,563.5 Z M 556.5,581.5 C 554.581,585.269 554.081,589.269 555,593.5C 555.637,595.303 556.803,596.636 558.5,597.5C 561.898,596.608 563.565,594.442 563.5,591C 563.438,586.003 561.104,582.836 556.5,581.5 Z M 515.5,583.5 C 512.853,585.933 512.186,588.767 513.5,592C 517.337,593 519.337,591.5 519.5,587.5C 519.821,584.488 518.488,583.155 515.5,583.5 Z"/></g>
<g><path style="opacity:0.966" fill="#144a79" d="M 667.5,567.5 C 685.689,567.867 698.355,576.367 705.5,593C 704.624,595.879 702.958,598.213 700.5,600C 689.784,605.211 678.45,607.877 666.5,608C 665.253,609.458 665.253,610.958 666.5,612.5C 666,613.881 665,614.547 663.5,614.5C 655.479,613.108 647.479,611.608 639.5,610C 638.167,609 638.167,608 639.5,607C 651.711,603.305 651.378,601.639 638.5,602C 634.665,600.506 632.665,597.672 632.5,593.5C 635.149,581.349 642.482,573.516 654.5,570C 658.965,569.126 663.298,568.293 667.5,567.5 Z M 650.5,583.5 C 647.927,585.91 645.927,588.743 644.5,592C 645.014,595.18 646.847,597.014 650,597.5C 651,596.5 652,595.5 653,594.5C 653.499,590.848 653.665,587.182 653.5,583.5C 652.5,583.5 651.5,583.5 650.5,583.5 Z M 688.5,586.5 C 687.293,590.786 686.293,595.12 685.5,599.5C 687.564,599.313 689.564,598.813 691.5,598C 696.994,592.764 695.994,588.931 688.5,586.5 Z"/></g>
<g><path style="opacity:0.959" fill="#144a79" d="M -0.5,640.5 C -0.5,634.5 -0.5,628.5 -0.5,622.5C 3.99657,607.666 13.8299,602 29,605.5C 29.624,607.464 29.124,609.131 27.5,610.5C 8.18171,617.62 3.34837,630.287 13,648.5C 16.8822,653.861 22.0489,656.028 28.5,655C 32.6328,651.869 36.4662,648.369 40,644.5C 49.2275,631.216 59.0608,618.383 69.5,606C 84.5852,595.25 98.7519,596.416 112,609.5C 120.433,623.808 122.766,639.141 119,655.5C 118.838,665.164 114.005,669.83 104.5,669.5C 100.694,669.545 97.0274,668.878 93.5,667.5C 91.7795,663.352 93.1129,660.519 97.5,659C 109.981,656.556 114.814,649.056 112,636.5C 109.844,627.339 104.677,620.506 96.5,616C 90.2628,616.115 84.9295,618.449 80.5,623C 70.9489,634.883 61.7823,647.05 53,659.5C 43.8196,668.064 32.9862,670.897 20.5,668C 14.4601,665.298 9.62674,661.131 6,655.5C 3.22592,650.633 1.05926,645.633 -0.5,640.5 Z"/></g>
<g><path style="opacity:0.944" fill="#144a79" d="M 580.5,635.5 C 581.552,635.351 582.552,635.517 583.5,636C 581.128,641.243 578.628,646.41 576,651.5C 575.316,652.784 575.483,653.951 576.5,655C 590.942,654.07 605.276,655.07 619.5,658C 622.993,658.942 626.326,660.275 629.5,662C 630.747,663.494 630.747,664.994 629.5,666.5C 615.46,671.104 601.127,672.27 586.5,670C 571.835,665.508 567.335,656.341 573,642.5C 575.396,639.933 577.896,637.6 580.5,635.5 Z"/></g>
<g><path style="opacity:0.96" fill="#144a79" d="M 1173.5,668.5 C 1180.24,668.171 1186.91,668.671 1193.5,670C 1195.49,672.79 1196.49,675.957 1196.5,679.5C 1193.14,709.388 1188.47,739.055 1182.5,768.5C 1174.61,768.051 1166.95,766.551 1159.5,764C 1156.81,761.368 1157.14,759.034 1160.5,757C 1165.29,755.302 1169.95,753.302 1174.5,751C 1180.12,743.904 1181.46,736.237 1178.5,728C 1148.29,721.853 1117.95,716.353 1087.5,711.5C 1085.63,711.39 1084.13,712.056 1083,713.5C 1079.95,717.756 1076.79,721.923 1073.5,726C 1072.55,726.483 1071.55,726.649 1070.5,726.5C 1070.49,710.052 1073.49,694.219 1079.5,679C 1080.45,678.517 1081.45,678.351 1082.5,678.5C 1082.33,682.182 1082.5,685.848 1083,689.5C 1083.2,691.402 1084.03,692.902 1085.5,694C 1110.8,698.217 1136.13,702.217 1161.5,706C 1169.14,707.236 1176.8,707.57 1184.5,707C 1187.89,701.798 1188.39,696.298 1186,690.5C 1183.62,682.045 1178.62,675.712 1171,671.5C 1170.83,671.167 1170.67,670.833 1170.5,670.5C 1171.6,669.824 1172.6,669.158 1173.5,668.5 Z"/></g>
<g><path style="opacity:0.958" fill="#144a79" d="M 598.5,695.5 C 603.511,695.334 608.511,695.501 613.5,696C 619.758,699.919 626.258,703.419 633,706.5C 635.612,705.533 637.945,704.199 640,702.5C 645.194,704.19 649.028,707.523 651.5,712.5C 650.91,713.799 649.91,714.632 648.5,715C 627.871,716.595 607.204,716.928 586.5,716C 576.499,716.001 566.833,714.335 557.5,711C 555.115,707.641 555.115,704.141 557.5,700.5C 558.167,700.167 558.833,699.833 559.5,699.5C 561.793,701.392 563.626,703.725 565,706.5C 565.804,707.804 566.971,708.471 568.5,708.5C 573.955,705.939 579.288,703.105 584.5,700C 589.254,698.358 593.921,696.858 598.5,695.5 Z"/></g>
<g><path style="opacity:0.923" fill="#144a79" d="M 584.5,732.5 C 592.174,732.334 599.841,732.5 607.5,733C 612.167,732.992 615.5,734.992 617.5,739C 617.11,741.459 615.776,743.126 613.5,744C 602.491,746.042 592.991,743.208 585,735.5C 584.517,734.552 584.351,733.552 584.5,732.5 Z"/></g>
<g><path style="opacity:0.959" fill="#144a79" d="M 132.5,758.5 C 134.167,758.5 135.833,758.5 137.5,758.5C 135.585,764.339 133.085,770.005 130,775.5C 112.57,803.107 95.7369,831.107 79.5,859.5C 80,859.833 80.5,860.167 81,860.5C 103.442,853.909 125.275,845.742 146.5,836C 152.252,833.264 155.085,828.764 155,822.5C 157.128,818.624 159.461,818.624 162,822.5C 167.335,831.669 170.502,841.335 171.5,851.5C 168.532,852.21 165.865,851.377 163.5,849C 159.167,848.333 154.833,848.333 150.5,849C 125.099,854.799 101.099,864.133 78.5,877C 75.3333,879.5 72.1667,882 69,884.5C 67.6283,887.618 66.4616,890.784 65.5,894C 64.0039,894.507 62.8373,894.007 62,892.5C 58.5646,885.189 55.7313,877.689 53.5,870C 67.1712,844.999 81.6712,820.499 97,796.5C 99.4742,791.89 101.641,787.223 103.5,782.5C 83.0182,787.407 63.3515,794.573 44.5,804C 39.403,807.812 36.7363,812.979 36.5,819.5C 28.4647,808.413 23.1314,796.08 20.5,782.5C 25.859,785.677 31.359,788.677 37,791.5C 44.6372,789.956 52.1372,787.789 59.5,785C 83.7148,775.546 108.048,766.713 132.5,758.5 Z"/></g>
<g><path style="opacity:0.966" fill="#144b79" d="M 1062.5,760.5 C 1063.5,760.414 1064.33,760.748 1065,761.5C 1065.1,767.118 1067.26,771.618 1071.5,775C 1099.83,791 1130.16,800.333 1162.5,803C 1165.08,801.335 1167.74,800.335 1170.5,800C 1169.58,809.206 1167.41,818.372 1164,827.5C 1162.26,832.647 1159.76,837.314 1156.5,841.5C 1155.2,840.91 1154.37,839.91 1154,838.5C 1153.74,832.478 1151.24,827.644 1146.5,824C 1122.28,813.149 1097.28,804.482 1071.5,798C 1067.5,797.333 1063.5,797.333 1059.5,798C 1055.81,800.345 1051.81,801.845 1047.5,802.5C 1049.34,787.305 1054.34,773.305 1062.5,760.5 Z"/></g>
<g><path style="opacity:0.957" fill="#144b79" d="M 1042.5,829.5 C 1049.28,829.475 1055.12,831.808 1060,836.5C 1062.02,838.969 1061.86,841.135 1059.5,843C 1054.15,843.53 1048.82,843.363 1043.5,842.5C 1040.75,842.353 1038.25,843.02 1036,844.5C 1028.97,854.551 1026.31,865.551 1028,877.5C 1030.85,882.427 1035.18,884.76 1041,884.5C 1055.9,881.867 1070.06,877.034 1083.5,870C 1117.56,858.077 1132.72,869.91 1129,905.5C 1125.12,917.455 1118.62,927.621 1109.5,936C 1105.33,938.086 1101.33,937.753 1097.5,935C 1095.17,933.333 1092.83,931.667 1090.5,930C 1084.47,925 1085.14,922.167 1092.5,921.5C 1111.28,925.896 1120.28,918.396 1119.5,899C 1120.42,892.731 1118.42,887.731 1113.5,884C 1108.1,883.228 1102.76,883.561 1097.5,885C 1083.93,890.451 1070.6,896.451 1057.5,903C 1041.75,907.863 1028.92,903.696 1019,890.5C 1014.72,880.657 1014.39,870.657 1018,860.5C 1023.43,847.915 1031.6,837.582 1042.5,829.5 Z"/></g>
<g><path style="opacity:0.965" fill="#144a79" d="M 180.5,866.5 C 182.39,866.297 183.89,866.963 185,868.5C 193.258,879.338 200.258,891.005 206,903.5C 206.494,905.134 206.66,906.801 206.5,908.5C 205.127,908.657 203.793,908.49 202.5,908C 200.242,905.233 197.575,903.066 194.5,901.5C 191.803,902.232 189.136,903.066 186.5,904C 163.368,916.813 141.035,930.813 119.5,946C 115.617,948.869 112.95,952.535 111.5,957C 112.286,960.458 112.62,963.958 112.5,967.5C 108.698,966.221 105.531,963.888 103,960.5C 95.4136,950.285 89.247,939.618 84.5,928.5C 92.4983,931.677 100.498,931.843 108.5,929C 134.507,916.306 158.34,900.473 180,881.5C 181.644,877.167 181.477,872.833 179.5,868.5C 179.863,867.817 180.196,867.15 180.5,866.5 Z"/></g>
<g><path style="opacity:0.976" fill="#144a79" d="M 955.5,1004.5 C 975.304,1004.14 985.471,1013.81 986,1033.5C 982.793,1047.16 974.293,1054.33 960.5,1055C 942.503,1048.84 936.336,1036.67 942,1018.5C 944.713,1011.96 949.213,1007.29 955.5,1004.5 Z"/></g>
<g><path style="opacity:0.981" fill="#144a79" d="M 253.5,1020.5 C 259.797,1020.85 265.797,1022.35 271.5,1025C 275.587,1029.89 277.587,1035.56 277.5,1042C 275.737,1065.23 263.737,1072.9 241.5,1065C 231.942,1058.67 228.442,1049.84 231,1038.5C 234.866,1027.79 242.366,1021.79 253.5,1020.5 Z"/></g>
<g><path style="opacity:0.95" fill="#144a79" d="M 753.5,1089.5 C 766.271,1087.73 777.105,1091.39 786,1100.5C 789.414,1106.56 790.08,1112.89 788,1119.5C 785.354,1125.46 782.188,1131.12 778.5,1136.5C 801.79,1137.66 811.957,1149.99 809,1173.5C 808.201,1179.64 805.035,1184.14 799.5,1187C 786.148,1195.68 771.815,1202.18 756.5,1206.5C 751.204,1204.7 747.704,1201.03 746,1195.5C 744.844,1191.58 744.344,1187.58 744.5,1183.5C 746.989,1183.3 749.323,1183.8 751.5,1185C 754.407,1189.58 758.24,1193.08 763,1195.5C 770.318,1192.92 777.151,1189.42 783.5,1185C 792.291,1177.31 794.457,1168.15 790,1157.5C 787.06,1153.57 783.227,1150.74 778.5,1149C 772.551,1147.93 766.551,1147.26 760.5,1147C 754.075,1146.05 753.075,1143.39 757.5,1139C 763.914,1139.05 768.414,1136.22 771,1130.5C 774.332,1120.23 772.498,1111.06 765.5,1103C 753.292,1096.84 743.125,1099.34 735,1110.5C 732.403,1116.13 729.903,1121.79 727.5,1127.5C 726.833,1128.83 726.167,1128.83 725.5,1127.5C 721.806,1120.93 720.306,1113.93 721,1106.5C 730.308,1097.76 741.141,1092.1 753.5,1089.5 Z"/></g>
<g><path style="opacity:0.96" fill="#144a79" d="M 447.5,1096.5 C 451.182,1096.33 454.848,1096.5 458.5,1097C 459.684,1098.18 460.351,1099.68 460.5,1101.5C 460.194,1104.53 459.694,1107.53 459,1110.5C 454,1126.83 449,1143.17 444,1159.5C 443.299,1162.93 443.632,1166.26 445,1169.5C 448.102,1172.21 450.602,1175.38 452.5,1179C 451.57,1179.99 450.404,1180.49 449,1180.5C 439.973,1178.27 431.14,1175.44 422.5,1172C 417.692,1170.43 413.359,1168.1 409.5,1165C 409.645,1164.23 409.978,1163.56 410.5,1163C 415.361,1163.22 419.527,1161.72 423,1158.5C 431.864,1144.04 436.531,1128.37 437,1111.5C 435.833,1110.33 434.667,1109.17 433.5,1108C 427.802,1106.45 422.135,1105.12 416.5,1104C 426.72,1100.53 437.053,1098.03 447.5,1096.5 Z"/></g>
<g><path style="opacity:0.947" fill="#144a79" d="M 522.5,1112.5 C 535.002,1111.97 547.335,1113.14 559.5,1116C 566.428,1118.59 570.928,1123.43 573,1130.5C 575.751,1142.36 572.584,1152.19 563.5,1160C 559.593,1161.57 555.926,1163.4 552.5,1165.5C 556.16,1168.99 559.994,1172.32 564,1175.5C 575.921,1193.98 572.088,1208.48 552.5,1219C 536.207,1223.53 519.874,1223.53 503.5,1219C 501.508,1218.43 500.008,1217.26 499,1215.5C 498.174,1206.96 499.174,1198.63 502,1190.5C 504.474,1196.25 507.14,1201.92 510,1207.5C 521.255,1216.48 532.755,1216.64 544.5,1208C 557.061,1195.07 556.061,1183.07 541.5,1172C 538.134,1169.82 534.467,1168.48 530.5,1168C 527.946,1165.6 527.946,1163.27 530.5,1161C 551.162,1160.36 558.662,1150.19 553,1130.5C 545.458,1119.97 535.625,1116.8 523.5,1121C 521.667,1122.83 519.833,1124.67 518,1126.5C 515.588,1131.66 512.921,1136.66 510,1141.5C 507.505,1134.23 507.171,1126.89 509,1119.5C 509.465,1118.07 510.299,1116.9 511.5,1116C 515.161,1114.41 518.828,1113.24 522.5,1112.5 Z"/></g>
<g><path style="opacity:0.959" fill="#144a79" d="M 665.5,1115.5 C 669.158,1114.87 671.658,1116.21 673,1119.5C 675.855,1139.87 678.855,1160.2 682,1180.5C 682.833,1182 684,1183.17 685.5,1184C 688.914,1184.3 692.247,1184.96 695.5,1186C 696.833,1188 696.833,1190 695.5,1192C 692.209,1193.6 688.875,1195.1 685.5,1196.5C 684.416,1197.67 683.583,1199 683,1200.5C 683.356,1206.81 683.356,1213.15 683,1219.5C 679.829,1224.41 676.163,1224.75 672,1220.5C 668.51,1213.22 666.343,1205.55 665.5,1197.5C 647.898,1199.68 630.231,1201.01 612.5,1201.5C 612.372,1199.35 612.872,1197.35 614,1195.5C 628.27,1171.57 642.937,1147.9 658,1124.5C 660.335,1121.33 662.835,1118.33 665.5,1115.5 Z M 659.5,1139.5 C 660.222,1139.92 660.722,1140.58 661,1141.5C 662.787,1154.13 663.954,1166.8 664.5,1179.5C 664.069,1183.1 662.069,1185.26 658.5,1186C 649.139,1188.51 639.806,1188.68 630.5,1186.5C 638.924,1169.97 648.591,1154.3 659.5,1139.5 Z"/></g>
</svg>
